HIERARCHY
ROOT Hips
{
	OFFSET 0.000000 0.000000 0.000000 
	CHANNELS 6 Xposition Yposition Zposition Zrotation Yrotation Xrotation
	JOINT LeftUpLeg
	{
		OFFSET 1.363060 -1.794630 0.839290 
		CHANNELS 3 Zrotation Yrotation Xrotation
		JOINT LeftLeg
		{
			OFFSET 2.448110 -6.726130 0.000000 
			CHANNELS 3 Zrotation Yrotation Xrotation
			JOINT LeftFoot
			{
				OFFSET 2.562200 -7.039590 0.000000 
				CHANNELS 3 Zrotation Yrotation Xrotation
				JOINT LeftToeBase
				{
					OFFSET 0.157640 -0.433110 2.322550 
					CHANNELS 3 Zrotation Yrotation Xrotation
					End Site
					{
						OFFSET 0.000000 0.000000 0.000000 
					}
				}
			}
		}
	}
	JOINT RightUpLeg
	{
		OFFSET -1.305520 -1.794630 0.839290 
		CHANNELS 3 Zrotation Yrotation Xrotation
		JOINT RightLeg
		{
			OFFSET -2.542530 -6.985550 0.000000 
			CHANNELS 3 Zrotation Yrotation Xrotation
			JOINT RightFoot
			{
				OFFSET -2.568260 -7.056230 0.000000 
				CHANNELS 3 Zrotation Yrotation Xrotation
				JOINT RightToeBase
				{
					OFFSET -0.164730 -0.452590 2.363150 
					CHANNELS 3 Zrotation Yrotation Xrotation
					End Site
					{
						OFFSET 0.000000 0.000000 0.000000 
					}
				}
			}
		}
	}
	JOINT Spine
	{
		OFFSET 0.028270 2.035590 -0.193380 
		CHANNELS 3 Zrotation Yrotation Xrotation
		JOINT Spine1
		{
			OFFSET 0.056720 2.048850 -0.042750 
			CHANNELS 3 Zrotation Yrotation Xrotation
			JOINT Neck1
			{
				OFFSET -0.054170 1.746240 0.172020 
				CHANNELS 3 Zrotation Yrotation Xrotation
				JOINT Head
				{
					OFFSET 0.104070 1.761360 -0.123970 
					CHANNELS 3 Zrotation Yrotation Xrotation
					End Site
					{
						OFFSET 0.000000 0.000000 0.000000 
					}
				}
			}
			JOINT LeftArm
			{
				OFFSET 3.362410 1.200890 -0.311210 
				CHANNELS 3 Zrotation Yrotation Xrotation
				JOINT LeftForeArm
				{
					OFFSET 4.983000 -0.000000 -0.000000 
					CHANNELS 3 Zrotation Yrotation Xrotation
					JOINT LeftHand
					{
						OFFSET 3.483560 -0.000000 -0.000000 
						CHANNELS 3 Zrotation Yrotation Xrotation
						JOINT LeftHandIndex1
						{
							OFFSET 0.715260 -0.000000 -0.000000 
							CHANNELS 3 Zrotation Yrotation Xrotation
							End Site
							{
								OFFSET 0.000000 0.000000 0.000000 
							}
						}
					}
				}
			}
			JOINT RightArm
			{
				OFFSET -3.136600 1.374050 -0.404650 
				CHANNELS 3 Zrotation Yrotation Xrotation
				JOINT RightForeArm
				{
					OFFSET -5.241900 -0.000000 -0.000000 
					CHANNELS 3 Zrotation Yrotation Xrotation
					JOINT RightHand
					{
						OFFSET -3.444170 -0.000000 -0.000000 
						CHANNELS 3 Zrotation Yrotation Xrotation
						JOINT RightHandIndex1
						{
							OFFSET -0.622530 -0.000000 -0.000000 
							CHANNELS 3 Zrotation Yrotation Xrotation
							End Site
							{
								OFFSET 0.000000 0.000000 0.000000 
							}
						}
					}
				}
			}
		}
	}
}
MOTION
Frames: 18
Frame Time: 0.041667
-39.960772 17.434758 -6.092795 -55.131719 86.448224 -57.547312 -21.710768 6.043191 0.602102 1.034859 5.933043 17.633718 -0.351267 5.209349 -10.831727 0.098000 -2.018600 -5.557100 27.237369 6.882613 -3.808052 -2.762140 -10.892383 31.678180 -0.324182 -6.590708 -21.583240 -0.171500 -2.667500 7.354400 1.334176 -0.665851 -0.923348 -2.168241 -0.386636 2.954776 6.403138 -0.530141 8.715315 0.069100 0.098700 4.587900 -79.631925 1.561910 26.960263 9.768741 -19.694187 -2.390252 -0.928228 -0.618966 -15.418991 -7.125000 0.000000 0.000000 78.354886 -2.232635 22.948564 -11.349132 22.234415 -2.897455 0.831575 -0.188586 1.761708 7.125000 0.000000 0.000000 
-39.961592 17.434144 -6.092181 -55.364826 86.432854 -57.771854 -21.692693 6.002188 0.566494 1.040583 5.947838 17.674927 -0.358968 5.254725 -10.835329 0.102800 -2.067900 -5.693300 27.263532 6.892851 -3.810024 -2.759044 -10.888252 31.663700 -0.326607 -6.575579 -21.579026 -0.177300 -2.712100 7.478200 1.334385 -0.659386 -0.931542 -2.182093 -0.383477 2.917740 6.385103 -0.540231 8.730579 0.054400 0.094600 4.599700 -79.641612 1.567406 26.958626 9.758823 -19.676315 -2.382818 -0.924133 -0.603307 -15.383187 -7.125000 0.000000 0.000000 78.371722 -2.268389 22.976533 -11.370517 22.261167 -2.905947 0.836465 -0.184654 1.757316 7.125000 0.000000 0.000000 
-39.961182 17.435168 -6.091669 -56.154343 86.430883 -58.549681 -21.653585 5.988725 0.543823 1.041087 5.951073 17.683411 -0.347236 5.193843 -10.852081 0.098200 -2.020400 -5.562000 27.297186 6.871052 -3.830572 -2.758243 -10.887855 31.661299 -0.321583 -6.610230 -21.593137 -0.176400 -2.705600 7.460100 1.339690 -0.668042 -0.934156 -2.174815 -0.387577 2.907462 6.378201 -0.519859 8.714738 0.050000 0.103100 4.587200 -79.648596 1.546218 27.042447 9.787689 -19.714520 -2.394894 -0.929600 -0.614740 -15.437850 -7.125000 0.000000 0.000000 78.359300 -2.290233 23.028590 -11.394851 22.290656 -2.913389 0.836521 -0.182278 1.729383 7.125000 0.000000 0.000000 
-39.960056 17.434860 -6.090952 -55.957114 86.442599 -58.363035 -21.675349 5.970814 0.565002 1.042984 5.955395 17.696761 -0.353388 5.229085 -10.853166 0.101300 -2.052600 -5.651100 27.280270 6.857622 -3.820095 -2.758561 -10.887055 31.661096 -0.318007 -6.621407 -21.580876 -0.171500 -2.668100 7.356100 1.337354 -0.659438 -0.934442 -2.172024 -0.383792 2.903365 6.379551 -0.526470 8.724140 0.047000 0.101100 4.592900 -79.644840 1.549055 27.098722 9.800568 -19.730464 -2.397393 -0.927443 -0.613259 -15.459553 -7.125000 0.000000 0.000000 78.365909 -2.305771 23.047056 -11.394128 22.289759 -2.912247 0.835310 -0.183185 1.718124 7.125000 0.000000 0.000000 
-39.959339 17.434860 -6.090337 -56.124148 86.442666 -58.532724 -21.669170 5.955728 0.570965 1.043865 5.957396 17.702985 -0.354015 5.234361 -10.859058 0.101500 -2.054000 -5.654900 27.288102 6.846322 -3.819223 -2.758662 -10.886788 31.661204 -0.315448 -6.632921 -21.577945 -0.169900 -2.655700 7.321600 1.337646 -0.655519 -0.937456 -2.172640 -0.382050 2.886757 6.376469 -0.525482 8.725372 0.042700 0.101900 4.592500 -79.645473 1.546605 27.151446 9.811346 -19.743559 -2.400341 -0.927604 -0.614309 -15.476403 -7.125000 0.000000 0.000000 78.373286 -2.338813 23.071282 -11.413522 22.313391 -2.918434 0.835023 -0.182594 1.703439 7.125000 0.000000 0.000000 
-39.958519 17.434860 -6.089928 -56.273445 86.441884 -58.686546 -21.662737 5.943470 0.581652 1.044370 5.957907 17.705405 -0.354261 5.238388 -10.866480 0.101300 -2.052600 -5.650900 27.295973 6.834729 -3.818056 -2.759880 -10.888053 31.666559 -0.314153 -6.639059 -21.577307 -0.168500 -2.644600 7.290800 1.337954 -0.650813 -0.940365 -2.172894 -0.379819 2.869934 6.374150 -0.525926 8.726417 0.038900 0.102000 4.591900 -79.645558 1.543857 27.205062 9.820419 -19.754960 -2.403053 -0.928113 -0.616363 -15.491415 -7.125000 0.000000 0.000000 78.381695 -2.366509 23.086310 -11.425810 22.328149 -2.922080 0.834358 -0.182832 1.691895 7.125000 0.000000 0.000000 
-39.957700 17.434656 -6.089416 -56.367532 86.442233 -58.784809 -21.660113 5.929913 0.588312 1.045657 5.960911 17.714770 -0.354621 5.243602 -10.877146 0.101100 -2.050400 -5.644900 27.300366 6.824137 -3.814848 -2.760237 -10.888145 31.667896 -0.313003 -6.644065 -21.574932 -0.167400 -2.636100 7.267300 1.337950 -0.645571 -0.943224 -2.172561 -0.377568 2.853132 6.373655 -0.527868 8.726461 0.036500 0.101400 4.591100 -79.645874 1.538685 27.251239 9.825209 -19.760412 -2.404118 -0.928206 -0.617643 -15.499380 -7.125000 0.000000 0.000000 78.392345 -2.390356 23.093250 -11.434768 22.338538 -2.924760 0.833582 -0.183541 1.683015 7.125000 0.000000 0.000000 
-39.956983 17.434553 -6.088904 -56.503606 86.437469 -58.922626 -21.649457 5.918778 0.589430 1.047134 5.964542 17.725950 -0.353837 5.243032 -10.887260 0.100400 -2.043600 -5.626100 27.313089 6.818152 -3.811467 -2.760248 -10.888023 31.668053 -0.312325 -6.648247 -21.576510 -0.167200 -2.634500 7.262900 1.339002 -0.641467 -0.945233 -2.170284 -0.375779 2.842368 6.372719 -0.530387 8.726949 0.033800 0.100400 4.592600 -79.647546 1.524098 27.290956 9.826611 -19.761524 -2.404177 -0.928521 -0.618808 -15.502040 -7.125000 0.000000 0.000000 78.400971 -2.400367 23.095713 -11.436755 22.340109 -2.925109 0.832978 -0.184438 1.677764 7.125000 0.000000 0.000000 
-39.956471 17.434553 -6.088187 -56.692861 86.433537 -59.105792 -21.637560 5.901320 0.579899 1.048723 5.969004 17.738464 -0.353229 5.241694 -10.894255 0.099800 -2.037500 -5.609300 27.327578 6.816464 -3.815145 -2.759898 -10.887893 31.667032 -0.312203 -6.652471 -21.582144 -0.167400 -2.636000 7.266900 1.340719 -0.640715 -0.947061 -2.164673 -0.375601 2.836612 6.374346 -0.532550 8.727186 0.033200 0.099700 4.595800 -79.649610 1.503118 27.323656 9.826826 -19.760743 -2.403805 -0.928661 -0.619350 -15.503170 -7.125000 0.000000 0.000000 78.407416 -2.394586 23.096962 -11.429517 22.329809 -2.922150 0.832573 -0.185630 1.673620 7.125000 0.000000 0.000000 
-39.955857 17.434451 -6.087470 -56.841665 86.424637 -59.246782 -21.622533 5.885323 0.568248 1.050683 5.974157 17.753039 -0.352637 5.241795 -10.902808 0.099300 -2.032000 -5.594000 27.345015 6.815845 -3.818980 -2.759183 -10.887383 31.664398 -0.312487 -6.653362 -21.585990 -0.167700 -2.638400 7.273500 1.342486 -0.638166 -0.947855 -2.160465 -0.374591 2.837921 6.376372 -0.535634 8.727916 0.032500 0.098600 4.599900 -79.650394 1.479262 27.354588 9.826724 -19.759504 -2.403181 -0.928418 -0.619223 -15.504249 -7.125000 0.000000 0.000000 78.413095 -2.379233 23.098123 -11.418200 22.314864 -2.918034 0.832478 -0.186406 1.671233 7.125000 0.000000 0.000000 
-39.955038 17.434246 -6.086855 -56.937794 86.416659 -59.334997 -21.610525 5.872061 0.558376 1.052333 5.978708 17.765921 -0.352078 5.241758 -10.912669 0.098900 -2.028400 -5.584200 27.358713 6.814399 -3.821678 -2.758522 -10.886843 31.662008 -0.314027 -6.647413 -21.589629 -0.168400 -2.643300 7.287200 1.343861 -0.635767 -0.948156 -2.156834 -0.373428 2.842519 6.380276 -0.539318 8.730285 0.033500 0.097400 4.605800 -79.650076 1.458401 27.384420 9.829311 -19.761857 -2.403412 -0.928099 -0.619132 -15.506883 -7.125000 0.000000 0.000000 78.419260 -2.365010 23.106083 -11.411729 22.305956 -2.915469 0.832663 -0.186653 1.665095 7.125000 0.000000 0.000000 
-39.953911 17.434144 -6.086343 -56.963080 86.410157 -59.353794 -21.603298 5.863167 0.552089 1.053792 5.982628 17.777142 -0.351572 5.243216 -10.924261 0.099100 -2.029600 -5.587600 27.366268 6.809521 -3.824742 -2.758052 -10.886504 31.660243 -0.314838 -6.641537 -21.587036 -0.168200 -2.641900 7.283200 1.344480 -0.632040 -0.948205 -2.155371 -0.371714 2.848034 6.382984 -0.542724 8.733244 0.033200 0.096300 4.611100 -79.647977 1.443405 27.414939 9.834480 -19.767839 -2.404585 -0.927919 -0.619251 -15.509558 -7.125000 0.000000 0.000000 78.426125 -2.349161 23.116169 -11.403061 22.294833 -2.912259 0.833148 -0.186502 1.661204 7.125000 0.000000 0.000000 
-39.952477 17.433939 -6.085934 -56.906187 86.406871 -59.293992 -21.602565 5.859450 0.554852 1.054692 5.984736 17.783984 -0.350309 5.240747 -10.938835 0.098600 -2.025100 -5.574900 27.365488 6.798834 -3.826113 -2.758151 -10.886457 31.660189 -0.315700 -6.632822 -21.579938 -0.167600 -2.637100 7.270000 1.344185 -0.627803 -0.948483 -2.155723 -0.369676 2.851586 6.387142 -0.546309 8.737369 0.034100 0.095400 4.617300 -79.644427 1.436815 27.448915 9.843302 -19.778734 -2.406990 -0.927827 -0.619606 -15.517964 -7.125000 0.000000 0.000000 78.436156 -2.352810 23.136355 -11.414035 22.307914 -2.915734 0.833430 -0.185642 1.650830 7.125000 0.000000 0.000000 
-39.950737 17.433529 -6.085831 -56.812366 86.406361 -59.201956 -21.605221 5.863936 0.563869 1.055167 5.985531 17.787151 -0.348668 5.235863 -10.953091 0.098500 -2.024400 -5.573200 27.358845 6.781545 -3.824486 -2.758734 -10.886584 31.661950 -0.317843 -6.616682 -21.571251 -0.167400 -2.635700 7.266000 1.343846 -0.623905 -0.949313 -2.159115 -0.368026 2.855839 6.380783 -0.537220 8.746640 0.024400 0.101300 4.633100 -79.640504 1.436842 27.485867 9.854825 -19.793454 -2.410567 -0.928084 -0.620275 -15.528642 -7.125000 0.000000 0.000000 78.446768 -2.362621 23.162526 -11.430971 22.327885 -2.921030 0.833794 -0.184550 1.641037 7.125000 0.000000 0.000000 
-39.949098 17.433324 -6.085729 -56.725048 86.410115 -59.117707 -21.611624 5.870616 0.573879 1.055058 5.985235 17.787154 -0.346917 5.229395 -10.963227 0.098500 -2.023600 -5.571000 27.347347 6.760788 -3.824585 -2.759694 -10.887095 31.664993 -0.318993 -6.605167 -21.562118 -0.166500 -2.628800 7.246900 1.343459 -0.622122 -0.951308 -2.164532 -0.367546 2.857552 6.366742 -0.516753 8.756242 0.006800 0.113000 4.654500 -79.636469 1.441503 27.522809 9.868117 -19.810779 -2.414901 -0.928454 -0.620953 -15.541377 -7.125000 0.000000 0.000000 78.457994 -2.377239 23.193606 -11.453468 22.353672 -2.928063 0.833888 -0.183599 1.629106 7.125000 0.000000 0.000000 
-39.947562 17.433017 -6.085729 -56.631580 86.412633 -59.030601 -21.615175 5.884020 0.588152 1.054692 5.983914 17.784931 -0.344555 5.217565 -10.968103 0.098100 -2.019300 -5.559100 27.337750 6.740870 -3.821415 -2.760764 -10.887843 31.669037 -0.319341 -6.598131 -21.553826 -0.165100 -2.617400 7.215300 1.343588 -0.619991 -0.952601 -2.170591 -0.366975 2.863315 6.345730 -0.485750 8.764557 -0.018300 0.129900 4.679100 -79.630880 1.445146 27.566463 9.881356 -19.828463 -2.419115 -0.928942 -0.621906 -15.557192 -7.125000 0.000000 0.000000 78.467669 -2.383655 23.222428 -11.470940 22.372531 -2.933140 0.833774 -0.183009 1.622931 7.125000 0.000000 0.000000 
-39.946538 17.432915 -6.085524 -56.619231 86.414814 -59.020170 -21.614830 5.893625 0.595831 1.053861 5.981568 17.778864 -0.343306 5.209851 -10.966754 0.098000 -2.018500 -5.556700 27.333383 6.727278 -3.824368 -2.762055 -10.889202 31.674491 -0.317877 -6.602967 -21.549234 -0.162900 -2.600500 7.168300 1.344413 -0.621074 -0.955465 -2.176054 -0.368045 2.862946 6.322454 -0.449493 8.770447 -0.046000 0.149500 4.704000 -79.624250 1.450248 27.614811 9.894967 -19.847152 -2.424152 -0.930710 -0.623965 -15.559730 -7.125000 0.000000 0.000000 78.476116 -2.384210 23.255395 -11.483278 22.384454 -2.936348 0.833930 -0.182630 1.617524 7.125000 0.000000 0.000000 
-39.945616 17.432812 -6.085217 -56.624107 86.418649 -59.026959 -21.613945 5.904992 0.601459 1.052780 5.978348 17.770310 -0.342585 5.202501 -10.958329 0.097800 -2.017300 -5.553300 27.330408 6.719049 -3.826960 -2.763586 -10.891144 31.681759 -0.317459 -6.607363 -21.552128 -0.161200 -2.586700 7.130100 1.345253 -0.623156 -0.958604 -2.179753 -0.369626 2.857972 6.300101 -0.417154 8.770873 -0.072200 0.166500 4.721800 -79.616030 1.456343 27.671829 9.907396 -19.865156 -2.429364 -0.933666 -0.626529 -15.549844 -7.125000 0.000000 0.000000 78.483563 -2.375516 23.284512 -11.485468 22.383749 -2.936174 0.834073 -0.182648 1.617297 7.125000 0.000000 0.000000 
